HIERARCHY
ROOT Hips
{
  OFFSET 0 0 0
  CHANNELS 6 Xposition Yposition Zposition Zrotation Yrotation Xrotation
  JOINT LeftThigh
  {
    OFFSET 8.409438 0 -5.917753
    CHANNELS 3 Zrotation Yrotation Xrotation
    JOINT LeftLeg
    {
      OFFSET 0 0 -42.358652
      CHANNELS 3 Zrotation Yrotation Xrotation
      JOINT LeftFoot
      {
        OFFSET 0 0 -39.357303
        CHANNELS 3 Zrotation Yrotation Xrotation
      }
    }
  }
  JOINT RightThigh
  {
    OFFSET -8.409438 0 -5.917753
    CHANNELS 3 Zrotation Yrotation Xrotation
    JOINT RightLeg
    {
      OFFSET 0 0 -42.358652
      CHANNELS 3 Zrotation Yrotation Xrotation
      JOINT RightFoot
      {
        OFFSET 0 0 -39.357303
        CHANNELS 3 Zrotation Yrotation Xrotation
      }
    }
  }
  JOINT SpineLow
  {
    OFFSET 0 0 4.719101
    CHANNELS 3 Zrotation Yrotation Xrotation
    JOINT SpineMid
    {
      OFFSET 0 0 12.899191
      CHANNELS 3 Zrotation Yrotation Xrotation
      JOINT Chest
      {
        OFFSET 0 0 12.899191
        CHANNELS 3 Zrotation Yrotation Xrotation
        JOINT LeftShoulder
        {
          OFFSET 7.550562 1.41573 9.438202
          CHANNELS 3 Zrotation Yrotation Xrotation
          JOINT LeftArm
          {
            OFFSET 9.155056 0 4.247191
            CHANNELS 3 Zrotation Yrotation Xrotation
            JOINT LeftForearm
            {
              OFFSET 0 0 25.771955
              CHANNELS 3 Zrotation Yrotation Xrotation
              JOINT LeftHand
              {
                OFFSET 0 0 25.197169
                CHANNELS 3 Zrotation Yrotation Xrotation
              }
            }
          }
        }
        JOINT RightShoulder
        {
          OFFSET -7.550562 1.41573 9.438202
          CHANNELS 3 Zrotation Yrotation Xrotation
          JOINT RightArm
          {
            OFFSET -9.155056 0 4.247191
            CHANNELS 3 Zrotation Yrotation Xrotation
            JOINT RightForearm
            {
              OFFSET 0 0 -25.771955
              CHANNELS 3 Zrotation Yrotation Xrotation
              JOINT RightHand
              {
                OFFSET 0 0 -25.197169
                CHANNELS 3 Zrotation Yrotation Xrotation
              }
            }
          }
        }
        JOINT Neck
        {
          OFFSET 0 0 15.101124
          CHANNELS 3 Zrotation Yrotation Xrotation
          JOINT Head
          {
            OFFSET 0 0 11.325843
            CHANNELS 3 Zrotation Yrotation Xrotation
            End Site
            {
              OFFSET 0 0 14.157303
            }
          }
        }
      }
    }
  }
}
MOTION
Frames: 11
Frame Time: 0.0
0.0  93.25843  0.0  -12.286362  -53.115357  -79.502212  35.012652  -17.204406  3.038928  6.351429  -0.309679  11.682263  -1.249578  -0.929799  -1.677969  16.780873  -4.862606  -12.524548  4.465284  6.41421  3.929024  -0.610665  0.190569  0.255271  -4.576244  -2.603684  0.601097  -12.616178  -6.973025  2.136613  -12.616178  -6.973025  2.136613  -20.498223  9.797622  4.498914  -33.626852  44.819457  1.171531  -19.886498  9.323487  137.377339  61.433991  -35.891952  20.027318  5.321659  -1.334305  23.677209  91.047957  34.371289  58.994199  -27.481313  4.11729  -125.216139  73.765137  -0.351413  -4.285863  8.24882  -3.962927  6.422325  6.226654  -2.886544  4.869432  
0.0  93.25843  0.0  -12.131347  -52.815375  -79.89818  35.548529  -17.427933  3.173979  4.393206  -0.718227  10.701752  -0.478164  -0.316148  -1.010593  16.200558  -4.946408  -12.285569  4.225138  6.409265  3.943467  -0.499332  0.175357  0.294756  -4.58292  -2.603138  0.642427  -12.63871  -6.963371  2.250075  -12.63871  -6.963371  2.250075  -20.335255  9.994164  4.255615  -34.074531  44.508829  1.055733  -19.945786  9.461189  137.264543  61.042901  -36.028527  20.229925  5.700454  -1.152131  23.42923  90.57154  34.08388  58.242193  -27.360661  4.376724  -125.299527  73.894841  -0.164622  -3.951004  9.203108  -3.848888  6.29192  6.940269  -2.793049  4.776481  
0.0  93.25843  0.0  -12.011486  -52.288098  -80.23425  35.875589  -17.739981  3.237285  3.311174  -0.568368  10.461353  -0.423922  -0.334703  -1.005097  15.790813  -4.990036  -12.068165  4.082117  6.393186  4.096412  -0.502852  0.159537  0.315854  -4.583544  -2.599523  0.661067  -12.642115  -6.949936  2.300333  -12.642115  -6.949936  2.300333  -20.415477  10.058024  4.202327  -34.376074  44.377529  1.001933  -20.06312  9.467585  137.382258  60.72274  -35.91982  20.23238  5.713182  -1.307978  23.425056  90.548192  34.033144  57.9882  -27.25064  4.609585  -125.365341  74.348396  -0.009724  -3.630555  10.075191  -3.77586  6.169553  7.592724  -2.731423  4.689327  
0.0  93.25843  0.0  -11.768841  -52.122526  -80.634015  36.306592  -17.927288  3.341364  2.463099  -0.389915  10.322316  -0.374244  -0.377816  -1.011338  15.643764  -4.978243  -11.864781  3.790287  6.340167  4.265329  -0.450945  0.120577  0.355605  -4.515792  -2.556069  0.691582  -12.456762  -6.828617  2.368155  -12.456762  -6.828617  2.368156  -20.412805  9.988728  4.1914  -34.601382  44.459293  1.032181  -20.21003  9.247694  137.542835  60.909181  -36.649047  21.255934  5.808944  -1.536546  23.292518  90.568232  34.041045  57.772926  -27.140899  4.875096  -125.382634  74.849829  0.086258  -3.256539  10.955948  -3.755642  5.944405  8.2515  -2.711529  4.525844  
0.0  93.25843  0.0  -11.548017  -51.615403  -80.919534  36.264082  -18.114952  3.342582  2.061022  -0.232095  10.309002  -0.413053  -0.408811  -0.993356  15.267314  -4.998251  -11.69033  3.832406  6.392688  4.461212  -0.520685  0.122983  0.348526  -4.458532  -2.522935  0.671501  -12.295738  -6.744517  2.301089  -12.295737  -6.744517  2.301089  -20.525232  9.94096  4.40405  -34.904747  44.747241  1.073293  -20.304773  8.897528  137.427617  60.807249  -36.431989  21.399839  5.684569  -1.732778  23.294909  90.744674  34.06469  57.640902  -26.966073  5.024091  -125.35036  75.410046  0.077471  -2.818961  11.700447  -3.74753  5.770794  8.808546  -2.701648  4.400306  
0.0  93.25843  0.0  -11.269855  -51.139835  -81.256209  35.107789  -18.363428  3.071428  2.85916  0.00815  10.978179  -0.719009  -0.363267  -1.128348  14.791105  -5.016196  -11.450616  3.506348  6.242071  4.578656  -0.44896  0.169112  0.357898  -4.345248  -2.454998  0.667978  -11.980808  -6.564693  2.267306  -11.980808  -6.564693  2.267307  -20.742565  9.738795  4.622891  -35.330216  45.175867  1.112848  -20.426769  8.323419  137.367398  60.805442  -36.007723  21.562595  5.394903  -2.099754  23.142651  90.95811  34.086143  57.584701  -27.026095  5.096829  -125.283361  75.780381  -0.039197  -2.498291  12.306796  -3.798619  5.474334  9.261641  -2.740327  4.182858  
0.0  93.25843  0.0  -10.926247  -50.505163  -81.546987  34.478832  -18.440338  2.976889  3.137559  0.165141  11.236149  -0.933313  -0.347943  -1.151502  14.209058  -4.95336  -11.275331  3.724113  6.284972  4.74406  -0.493427  0.191508  0.347882  -4.271729  -2.404281  0.632474  -11.772983  -6.4358  2.15379  -11.772983  -6.4358  2.15379  -20.811022  9.684494  4.888132  -35.918931  45.761746  0.953407  -20.563501  7.52631  137.061315  60.870145  -35.665682  21.888379  5.324539  -2.329629  23.13038  91.206348  34.14014  57.57471  -26.818823  5.275559  -125.194317  76.112353  -0.229998  -1.791171  12.925999  -3.762733  5.199877  9.723878  -2.713761  3.980312  
0.0  93.25843  0.0  -10.691775  -49.555573  -81.816913  33.802118  -18.658574  3.013278  2.925889  0.392132  11.152974  -0.851255  -0.291388  -0.992858  13.250461  -5.05888  -11.064361  3.324077  6.182052  4.801568  -0.13618  0.327786  0.369766  -4.213312  -2.354205  0.608934  -11.607916  -6.305743  2.074805  -11.607916  -6.305743  2.074805  -20.854689  9.605408  5.193614  -36.858416  46.420161  0.598057  -20.734913  6.461118  136.739541  60.961483  -35.304665  22.205287  5.175077  -2.644793  23.067609  91.434529  34.175642  57.534602  -27.49135  4.777257  -124.981823  76.479275  -0.613719  -2.152472  13.516869  -3.705317  4.94155  10.164876  -2.671466  3.789134  
0.0  93.25843  0.0  -10.240812  -48.576519  -82.254708  32.88332  -18.716963  3.009734  2.805646  0.62759  11.252986  -0.863483  -0.342104  -0.970579  12.504654  -4.923437  -10.790927  3.484495  6.221187  5.003266  -0.176612  0.371997  0.346267  -4.181261  -2.301059  0.563309  -11.513079  -6.170116  1.937645  -11.51308  -6.170116  1.937646  -20.759014  9.704932  5.554757  -38.094918  47.200231  -0.10826  -20.966792  5.127262  136.394198  60.901075  -34.953124  22.456438  5.240108  -2.843347  23.17586  91.785324  34.226543  57.576808  -27.276633  4.946448  -124.782061  76.867626  -0.905184  -1.330789  14.020559  -3.607903  4.680696  10.540314  -2.600359  3.594489  
0.0  93.25843  0.0  -9.932869  -47.395404  -82.721982  32.122364  -18.912004  3.179696  2.579262  0.848436  11.28967  -0.869681  -0.447978  -0.934524  11.721917  -4.885325  -10.427303  2.723739  6.237274  4.995797  0.267235  0.503556  0.39595  -4.196439  -2.264057  0.534773  -11.550224  -6.073832  1.854485  -11.550224  -6.073832  1.854484  -20.315586  9.963769  5.926409  -39.719148  48.062972  -0.993452  -21.212035  3.663919  136.027988  60.730503  -34.594078  22.669547  5.42544  -2.979132  23.277499  92.150519  34.245617  57.570884  -27.306916  4.975074  -124.577645  77.404711  -1.33108  -0.852054  15.02866  -3.281072  4.71957  11.294548  -2.346591  3.622091  
0.0  93.25843  0.0  -9.423878  -46.220253  -83.295135  31.31235  -18.961724  3.325686  2.215032  1.018871  11.230239  -0.968475  -0.516332  -0.938788  11.224979  -4.618491  -10.113318  2.503935  6.296226  5.289546  0.190341  0.554972  0.381011  -4.1753  -2.205871  0.486962  -11.485256  -5.924365  1.711642  -11.485256  -5.924365  1.711642  -20.098174  10.126384  6.261581  -41.712797  49.189188  -2.304161  -21.436731  2.145565  135.625297  60.481551  -34.20786  22.909397  5.564902  -3.079223  23.559603  92.527791  34.349351  57.552866  -27.359359  5.214175  -124.299873  78.039076  -1.691969  -0.261816  15.378605  -3.163632  4.464875  11.554861  -2.262206  3.430084  
